<?xml version="1.0" encoding="UTF-8" standalone="no"?>
<svg xmlns:rdf="http://www.w3.org/1999/02/22-rdf-syntax-ns#" xmlns="http://www.w3.org/2000/svg" xml:space="preserve" height="138.1" width="211.18" version="1.1" xmlns:cc="http://creativecommons.org/ns#" xmlns:dc="http://purl.org/dc/elements/1.1/" viewBox="0 0 211.18166 138.09889"><g><path fill="#01563f" d="m115.88 113.5 0.21289 0.11325c1.1675 2.9312 2.2305 5.8624 3.293 8.7949-1.4875 0.45-3.5059 0.225-5.0996 0-0.425 0.225-1.168 0.22383-1.6992 0.11138 0.6375-2.255 1.4871-4.6239 2.4434-6.8789l0.84961-2.1406zm74.676-6.8789c-0.95625 2.48 1.9125 1.1284 2.6562 2.2559 0.2125 0.45125 0.42381 0.9011 0.42381 1.4649v18.719l-0.31835 2.1425c-0.42501 0.78875-1.1692 0.78821-1.6992 1.127-0.10625 0.45125-0.21134 1.014 0.10738 1.2402 5.9475-0.3375 12.214-0.1125 18.056 0 0.31875-2.1425 0.1075-4.5099 0-6.6524-0.31875-0.225-0.85-0.33796-1.0625 0.11325-0.6375 1.2412-0.00008 3.3808-1.4864 3.832-2.6562 0.1125-5.6289 0.33875-8.2851 0-0.2125-3.1575-0.10625-6.7651 0-10.035l0.1055-0.22461c1.9125 0 4.143-0.22545 5.9492 0.11325 1.1688 0.78875 0.31875 2.1412 1.0625 3.1562 0.425 0 0.95665 0.22546 1.2754-0.11325 0.10625-2.8188 0.2125-5.5254 0-8.1191-0.425-0.33875-0.95781-0.1125-1.3828 0-0.2125 1.015 0.10788 2.1441-0.74219 2.8204-1.9125 0-4.3559 0.22546-6.1621-0.11325-0.31875-2.8188 0.00077-5.9761-0.1055-8.7949l0.31836-0.56445c2.4438-0.3375 5.311 0.00078 7.6485 0.11325 1.38 0.33875 0.74375 2.142 1.0625 3.2695 0.42375 0 1.0613 0.22743 1.4864-0.11137l0.42577-5.414-0.21289-0.22462c-6.2675 0.1125-12.641 0-19.121 0zm-28.892-0.22656-0.31836 0.22656c0.10625 0.56375-0.107 1.0156 0.1055 1.4668 1.0625 0.1125 2.4441-0.1135 2.8691 1.2402v16.236c-0.10625 1.1288 0.1055 2.369 0.63673 3.3828 2.5488 5.3012 8.8161 5.1868 13.809 4.623 2.7612-0.67625 5.6309-3.3815 6.1621-6.539 0.6375-5.8625 0-11.953 0.53125-17.816 0.2125-0.67625 0.84891-0.78984 1.3789-0.90234 0.425-0.1125 1.1688 0.22585 1.5938-0.3379-0.10625-0.3375 0.10775-1.1285-0.21095-1.3535-2.655 0-5.4192 0.001-8.0742-0.11138-0.31875 0.33749-0.31798 1.2402-0.1055 1.6914 1.0625 0.225 2.6548-0.22719 2.8672 1.3515l0.10737 6.3145c-0.6375 4.6225 1.2738 10.713-2.6562 13.758-2.4438 1.24-5.736 1.3525-8.1798 0-1.7-0.9025-2.3371-2.708-2.4434-4.5118-0.10625-5.525-0.21133-10.824 0.10737-15.899 0.425-1.24 1.911-0.78945 2.8672-1.127 0-0.565 0.31953-1.0144-0.1055-1.5781-3.505 0.22499-7.2239-0.001-10.941-0.11525zm-79.35-0.33594-0.53125 0.22461c0.10625 0.33875-0.31875 0.90227 0 1.3535 0.95625 0.225 2.5485 0.11238 2.8672 1.4649l0.10738 20.635c0.3175 1.9175-2.6559 1.4658-1.9121 3.2695 2.4425 0.22625 4.7794-0.22383 7.3281-0.11138 3.6125-0.1125 7.1165 0.22383 10.834 0.11138l0.32031-6.539c-0.2125-0.56375-0.84961-0.11325-1.3809-0.11325-0.425 1.015-0.42421 2.2565-0.63671 3.2715-0.95625 1.1275-2.55 0.56289-3.7188 0.90039-1.6988 0-3.718 0.22663-5.418-0.22462-0.21125-3.1575-0.21171-6.6539-0.1055-9.9239l0.31835-0.22461c1.805 0 3.6122-0.11375 5.5235 0 1.275 0.56375 0.84922 2.142 1.168 3.2695 0.425 0 1.1695 0.22663 1.4882-0.2246v-7.8945c-2.2312-1.5775-1.0625 1.805-2.125 2.5938l-6.1621 0.11325-0.21094-0.22657c0.105-3.1562-0.2129-6.3136 0.31835-9.2461 2.655-0.225 5.3105-0.111 7.9668 0.11525 0.95625 0.5625 0.53048 1.9148 0.63672 2.9298l0.21289 0.33789c0.425 0 0.95586 0.11487 1.3809-0.11138 0.10625-1.8038 0.53156-3.8341 0.32031-5.5254-6.1612-0.1125-12.216 0.11287-18.59-0.22462zm35.426-0.0859c-0.61062-0.0281-1.2758 0.14178-1.7539 0.31053l-1.5938 4.3965-5.416 14.096c-1.3812 2.3675-1.17 6.7649-4.7812 6.6524-0.10625 0.67625-0.10625 0.90189 0 1.5781 2.655 0 5.6301-0.1125 8.2851 0 1.275-2.7062-2.6542-0.90242-2.6542-3.0449l1.5938-4.8476 0.31836-0.2246h8.6035l0.21289 0.2246c0.6375 1.9162 1.5935 3.6079 1.8048 5.5254-0.53 0.78875-1.486 0.67655-2.336 0.78905-0.6375 0.22625-0.31836 1.1277-0.31836 1.6914 3.8238 0 7.4352-0.00077 11.365-0.11325 1.1688-2.7062-2.4438-0.67586-2.6562-2.8184-3.1862-7.78-6.159-15.56-9.2402-23.341-0.26563-0.62-0.82298-0.84493-1.4336-0.87304zm-57.84-0.0272c-0.425 0-0.74492 0.33781-0.63868 0.78906-0.425 1.8038 1.4886 0.67649 2.2324 1.2402 0.7425 0.33875 0.74211 1.353 0.84961 2.0292v18.492l-0.21485 1.6914c-0.10625 1.015-1.2726 1.2409-1.9101 1.8048-0.10625 0.22625 0.1055 0.56359 0.1055 0.90234 6.1612 0 11.792-0.22539 17.632 0.22461l0.63868-0.33789c0-2.2562 0.31836-4.6239 0.31836-6.8789-0.425-0.1125-1.1676-0.22421-1.4864 0.11325-0.2125 1.3538-0.31954 2.8178-0.95704 3.9452-2.8675 0.56375-5.6298 0.45117-8.6035 0.45117-0.63875-0.56375-0.21336-1.5772-0.31836-2.4785v-18.605l0.31836-0.90235c0.74375-0.78875 1.8055-0.33702 2.7618-0.67577 0-0.45125 0.10512-1.2413-0.10738-1.5801-3.7175 0-6.9036 0.22539-10.621-0.22461zm87.382-0.0996c-3.1202-0.0705-6.2268 0.49414-8.9355 1.791v0.22461c-2.6562 1.4662-4.7801 3.9458-5.7364 6.877-1.4875 5.4138-0.84952 12.066 3.8242 15.788 5.7363 4.6238 14.446 3.6086 20.713 0.90234 0-2.3675-0.10701-4.5106 0.10549-6.7656 0.10625-0.33875 0.4261-0.67532 0.7461-0.78907 0.7425 0 0.95469-0.7886 0.74219-1.4649-3.3988-0.11375-7.1169 0.11212-10.516-0.22656l-0.31837 0.22656c0 0.45-0.21405 1.2398 0.21095 1.4649 1.275 0.11375 2.6562-0.22516 3.6112 0.90234l0.1075 5.5254c-0.21249 0.33875-0.53211 0.56367-0.84961 0.45117-2.125 1.1275-4.7818 0.90211-7.0118 0.22461-4.2488-1.6912-6.1605-6.3142-6.373-10.824-0.31875-4.285 0.95634-8.4579 4.6739-10.713 3.3988-2.03 8.711-1.6906 11.791 1.0156 0.84999 0.90125 0.31914 2.5944 0.74414 3.6094 0.425 0.1125 0.8504 0.225 1.2754 0 0.42375-1.805 0.74218-3.6086 0.74218-5.6386l-0.53125-0.56445c-2.7612-1.24-5.8952-1.9451-9.0156-2.0156zm-59.285-71.392-0.31835 0.22461c-0.10625 1.24-0.2125 2.4819 0 3.6094 3.4 0.45125 6.6914 2.2549 8.2851 5.6386 2.5488 6.0875 4.7814 12.515 7.3301 18.604l5.416 14.208c2.6562 6.7662 5.3118 13.532 8.0742 20.072l6.2676 0.11138c0.74375-1.1275 1.1692-2.4802 1.6992-3.834l8.498-21.761c1.4875-4.1712 3.295-8.2311 4.7812-12.402l5.0976-12.969 2.0195-4.7364c0.955-2.48 3.6114-2.5918 5.7364-2.5918 0.10625-1.1288-0.00077-2.5944 0.1055-3.6094l-0.21288-0.2246c-5.7362 0.3375-10.94 0.3375-16.57 0-0.85-0.11375-2.0196-0.22625-2.9746 0 0.105 1.24-0.10575 2.3682 0.1055 3.7208 2.125 0.11375 4.143 0.3382 5.9492 1.127 2.0188 1.24-0.001 3.6095-0.10737 5.3008l-6.7989 18.379-1.0605 2.8184v0.11325l-5.418 14.548-0.31836 0.44922c-1.8062-3.9462-3.293-8.1178-4.7792-12.289l-7.0118-18.492c-1.0625-3.4962-3.4008-6.6526-3.082-10.486 1.4875-1.9175 3.8255-1.128 5.9492-1.4668 1.0625-0.225 0.42618-1.4659 0.63868-2.2559-0.2125-0.56375 0.21093-1.2402-0.32032-1.6914-8.8162 0.45125-18.269 0.56491-26.98-0.11138zm-30.114 0c-0.323 0.125-0.642-0.101-0.856 0.124l-0.10738 3.2715 0.21289 0.45118c2.0188 0 4.3574-0.22601 5.9511 1.2402 1.805 3.3838 0.63632 7.78 0.95508 11.5v34.955c0 1.9175 0.10575 3.8334-0.63671 5.4121-1.3825 2.03-4.25 1.6914-6.375 1.6914-0.425 1.015-0.21368 2.4826-0.10738 3.7226 2.55 0.1125 5.5259-0.11538 8.2871-0.22656 5.9488-0.33875 12.216 0.33906 18.059 0.22656 0.10625-1.24 0.107-2.5951-0.1055-3.7226-2.0188-0.1125-4.3555 0.34009-5.9492-1.0137-0.85-0.67625-0.85-1.8052-1.0625-2.8202v-46.23l0.31836-2.4805c1.0625-2.8188 4.4625-1.9151 6.9062-2.2539l0.1055-3.3828-0.31836-0.33984c-8.605 0.22625-16.571 0.67741-25.281-0.11138zm109.68-0.67578-12.642 2.8184-0.74414 0.3379c0 1.0138-0.21132 2.3678 0.10738 3.3828 4.8862-0.33875 7.754 4.6229 10.303 8.1191l6.7989 11.838c2.3375 4.06 5.2066 8.0064 6.0566 12.629l0.1055 16.014-0.42578 2.4785c-1.275 2.7062-4.2476 1.6914-6.6914 2.1426-0.10625 1.24-0.2125 2.3681 0 3.6094 8.7112-0.22625 17.314-0.45289 25.918 0.22461l0.53125-0.22461c0.10625-1.0162 0.21328-2.5932-0.1055-3.7208-2.0175 0-4.3548 0.33688-6.0548-1.0156-0.84875-0.78875-0.74259-1.9161-0.95509-3.0449l-0.10737-17.025c-0.10625-3.0438 1.9118-5.1875 2.7618-7.7812 5.205-9.1338 10.728-18.266 16.57-27.062 0.21249-0.67625 0.21249-1.353 0-2.0292-2.2312 0.1125-4.3535-0.33796-6.4785 0.11325-4.6738 9.81-10.199 19.169-15.722 28.528h-0.31835c-3.7175-7.1038-7.011-14.32-10.728-21.424-2.0175-3.6088-4.6728-7.3275-8.1778-8.9062zm-66.125-29.081-0.42579 0.22461c-0.42375 1.805 2.0199 0.56382 2.2324 2.1426 0 5.1875 0.2125 9.9226 0 15.223 0.2125 1.3525-1.8066 0.90015-1.2754 2.2539 0.10625 0 0.2121 0.11325 0.31835 0.11325h12.961c0.53125-1.4662 0.105-3.1576 0.42382-4.7364l-0.1055-0.2246c-1.7-0.56375-1.0625 1.8026-1.5938 2.7051-2.0188 0.56375-4.461 0.34031-6.586 0.22656-0.10625-2.7062-0.2125-5.0748 0-7.5548 1.275-0.11375 2.8689-0.11375 4.1426 0 1.275 0.45 0.31795 1.9168 1.168 2.4805 0.31874-0.1125 0.6371 0.11288 0.8496-0.2246 0-1.9175 0.107-4.059-0.1055-5.9765-1.9125-0.79-0.42546 1.8039-1.6992 2.1426-1.3812 0-3.0816 0.22539-4.4629-0.22461v-6.2031l0.3203-0.56445c1.5938-0.1125 3.5044-0.1125 5.2031 0 1.3812 0 0.74493 1.691 1.1699 2.3672 0.31875 0 0.74257 0.45125 0.95507 0 0.2125-1.3525 0.21408-2.7052 0.32033-3.9452-4.6738-0.1125-9.1355 0.11288-13.81-0.22461zm-10.41 0-0.31836 0.22461c-0.7425 1.9162 1.5926 0.5639 2.0176 1.6914 0.425 1.9175 0.10662 4.0603 0.2129 5.9765l-0.2129 0.45118-7.8614 0.11138-0.42188-0.33594-0.10738-5.752 0.31836-0.67578c0.53-0.33875 1.0617-0.33985 1.6992-0.33985 0.425-0.1125 0.31835-0.56242 0.31835-1.0137l-0.31835-0.22656c-2.5488 0.1125-5.5235-0.11175-8.1798 0.11325-0.7425 2.1425 2.0188 0.33805 2.125 2.0292l0.21289 14.771-0.21289 0.90235c-0.31875 0.9025-1.487 0.56359-2.0195 0.90234-0.31875 0.33875-0.10625 0.67492 0 1.0137 2.55 0 5.6321 0.000475 8.2871-0.11325 0.10625-0.3375 0.10512-0.7875-0.10738-1.125-0.85-0.11375-1.6969 0.22398-2.0156-0.79102l-0.10738-7.1035 0.2129-0.33789c2.655-0.11375 5.311-0.22579 8.0722-0.11325l0.31836 0.3379v7.1035c-0.31875 1.1275-1.4868 0.78938-2.2305 1.0156-0.10625 0.33875-0.107 0.9007 0.1055 1.127 2.7625 0 5.5246 0.000475 8.2871-0.11325 0.85-2.2538-2.1261-0.22555-2.2324-2.0292v-9.1309c-0.10625-2.3688-0.10588-4.5114 0.21289-6.8789 0.6375-0.67625 1.2746 0.22508 1.9121-0.45118 0.10625-0.33875 0.21328-0.90391-0.1055-1.1289l-7.863-0.0991zm-31.122 0-0.32031 0.22461c-0.10625 1.6912 0.10738 3.0435 0.10738 4.5098l0.84961 0.11325c0.53125-0.3375 0.31952-1.2409 0.42578-1.8048 0.84875-1.8038 3.1855-0.7886 4.7792-0.90235l0.21289 0.22656c0.10625 4.8488 0.10625 10.26 0 15.334-0.2125 1.3538-1.8074 0.33899-2.2324 1.2402-0.10625 0.33875 0.0004 0.78938 0.2129 1.0156 2.55-0.1125 5.3121-0.22625 7.7559 0 0.31875 0 0.6375-0.33829 0.53125-0.67579 0.10625-1.24-1.1699-0.33976-1.7011-0.79101-0.53125-0.225-0.42422-0.9011-0.63672-1.4649v-14.659l0.211-0.2141 4.037-0.1114c1.2738 0.3375 0.63632 1.8039 0.95508 2.7051 0.31875 0.22625 0.74375 0.22625 1.0625 0l0.31836-4.0586-0.1055-0.56446c-5.5238 0.1125-10.835 0.11362-16.465-0.11138zm-39.838-3.7085c-0.425 0.79-0.84969 1.8026-1.2735 2.7051-0.74375 0.56375-0.42539 1.6906-1.2754 2.1406-1.9125-0.225-3.9314 0.33868-5.7364-0.11138-1.0625-0.22625-2.1239-0.90086-3.0801-0.22461 0.95625 3.1575 2.761 6.0874 3.3985 9.3574-0.53125 1.24-1.0625 2.3686-2.125 3.0449-0.2125 1.0138-1.0613 1.2401-1.4864 2.1426-0.21125 0.3375-0.21086 1.0164 0.21289 1.1289 1.4875-0.1125 3.2934-0.11375 4.5684 0.5625 3.08 0.67625 4.993 5.0732 8.498 3.2695 1.7-1.3538 3.5051-3.3825 3.0801-5.75 0.10625-0.33875 0.31719-0.67695 0.74219-0.56445 1.0625 0.67625 1.9125 1.8034 2.6562 2.8184 2.1238 2.4812 2.8696 5.5265 4.0371 8.459 0.6375 2.8188-1.8062 4.8476-2.125 7.4414 0.2125 2.1412 1.5938 3.7208 1.5938 5.8632l-0.53125 2.3672c-0.31875 1.805 0.42382 3.2709 0.42382 4.8496-0.63625 1.8038-0.74258 3.833-1.4864 5.6368-0.84875-0.3375-0.74219-1.5776-1.2735-2.2539-0.10625-0.79-0.63868-1.578-0.63868-2.4805-1.1688-2.03-0.425-4.7361-2.125-6.6524-2.0175-1.1275-3.3985-2.4814-4.9922-4.2851-0.31875-2.5938-0.42469-5.413-2.336-7.2168-1.1688-1.5788-2.8684-1.5798-4.5684-1.3535l-2.6562 2.0292c-1.8062 0.9025-3.5051 2.2559-5.6289 2.2559-0.74375 0.1125-1.9125-0.565-2.125 0.5625 0.10625 0.6775 0.84922 1.128 1.168 1.4668 0.425 1.24 1.2761 2.3682 1.7011 3.7208-2.6562 2.0312-3.825 5.2989-5.8438 7.8926-0.2125 0.45125 0.10625 1.0152 0.53125 1.2402 2.23 1.4662 4.993 0.67812 7.4355 1.0156 0.85 0.1125 1.8059-0.90329 2.4434-0.11325 0.10625 1.5788 0.53202 3.2709 0.95702 4.8496 0.31875 0.3375 0.53125 0.90156 1.0625 0.78906l2.2305-2.707c2.4438-1.0138 5.3114-1.2403 7.3301-3.3828 0.85-0.78875 1.8035-1.803 2.2285-3.043 0.2125-0.6775-0.21172-2.0296 0.42578-2.2559 0.6375 0.33875 0.74336 1.0139 0.84961 1.6914 1.0625 3.3825 1.2761 7.1026 3.2949 10.035-0.85 3.3825-1.8066 7.328-0.74414 10.824 0.84875 2.0288-0.63868 3.7224-0.63868 5.6386-0.425 0.90125-0.21094 2.48-1.2735 2.5938-1.0625-1.3538-3.1871-1.0158-4.0371-2.707 0.95625-0.56375 2.018-0.67765 2.7618-1.6914 0.53125-0.9025 1.2742-1.2402 1.6992-2.2539 0.6375-0.9025 0.53164-1.9186 0.21289-2.9336-1.5938-2.3675-3.9305-3.0426-5.9492-4.8476-1.8062-0.67625-1.9122-3.2695-3.9298-3.2695-1.5938 1.3538-1.5938 3.721-3.1875 4.961-2.23-0.1125-4.036-0.67766-6.0548-1.1289-0.53-0.1125-0.74336-0.675-1.3809-0.5625-0.2125 0-0.53125 0.22618-0.53125 0.45118 1.0625 2.03 1.2762 4.2845 2.125 6.3145 0.53125 2.5925-1.8059 4.0582-2.4434 6.4258-0.31875 0.6775-1.7004 1.1288-1.2754 2.0312 1.8062 0.9025 4.3559 0.22601 6.1621 1.3535 2.655 0.90125 4.7794 3.3818 7.8594 3.043 0.95625-0.67625 2.5504-0.56304 2.8691-2.0292 0.85-1.1262 0.31798-2.8198 0.63672-3.9472 1.805 0.56375 3.718 1.0158 4.8868 2.707 0.31875 1.8038 0.63828 3.7216 0.95702 5.5254 0.425 0.9025 1.6991 1.5776 1.2754 2.7051 0.3175 1.3538-0.000313 2.9326 0.21094 4.2851 0.6375 1.24 0.63632 2.5948 0.95508 3.9472-0.6375 3.27 0.21454 6.539 0.95704 9.584 0.2125 2.3675-1.2746 4.172-1.9121 6.3145-0.53 0.56375-0.53086 1.8055-1.3809 1.918-0.6375-3.6088-1.0625-7.2171-2.125-10.6-0.95625-2.2562-3.2918-3.2706-5.3105-4.1719-1.3812-0.45125 0.31758-1.4659-0.10742-2.2559 1.0625-2.0288 0.42618-4.5086-0.95508-6.2011-1.1675-1.3525-2.8672-1.5798-4.461-1.3535-2.5488 1.015-4.6748 2.8195-7.6485 2.707-1.3812 0.1125-2.3382-1.467-3.6132-0.56446-0.425 1.5788 1.2758 2.2549 1.4882 3.6074 0.10625 1.2412 1.3812 1.6932 2.125 2.707 0.31875 0.565 0 1.1285-0.53125 1.3535-1.7 0.90125-2.232 2.8186-3.6132 4.0586-0.84875 1.4662-3.1848 2.2544-2.2285 4.1719 2.1238 0.90125 4.4599 1.4665 6.9024 1.2402 1.275 0.33875 2.8691-0.90016 3.9316 0.33984 0.31875 1.0138 0.63789 2.0288 0.74414 3.1562 0.31875 1.015 0.63672 2.0291 1.168 2.9316 0.2125 0.225 0.53164-0.11213 0.74414-0.22462 0.53125-1.805 2.4426-2.3682 4.0351-2.707 3.1875-0.56375 5.5246-3.4956 6.1621-6.7656h0.31836c0.85 0.9025 0.95548 2.3694 1.168 3.6094 0.2125 1.9162 0.74414 3.9462 0.74414 5.75 0.53125 3.4962 0.95586 7.1022 0.84961 10.711-0.74375 2.5938-2.3368 4.9625-2.2305 7.7812 0.10625 1.3538 1.2742 2.5936 0.63672 4.0586 0.425 0.56375 1.2754 0.67741 1.8066 0.45116 0.74375-0.45125 0-1.2409 0-1.8046-2.975-2.7062-0.2125-6.4261 0.53125-9.3574 0.2125-0.79 0.84805-1.355 1.0606-2.0312 1.5938-2.7062 1.8079-7.3272 5.5254-7.666 1.275 2.4812 3.3989 4.2832 5.0976 6.4258 0.63875 1.4662 1.3809 3.2709 0.31836 4.8496 0.10625 0.225 0.31991 0.44922 0.63866 0.44922 2.0175-1.3525 3.4005-4.6222 5.9492-4.5098 2.3375 1.4662 4.8872 2.9331 7.6485 3.6094 0.31875-0.11375 1.2738 0.2243 1.0625-0.56445-0.74375-2.1425-0.53125-4.6222-0.53125-7.1035-0.53125-1.1275 0.21171-2.4819-0.42579-3.6094 1.0625-0.78875 2.2314-1.2389 3.0801-2.2539 0.2125-0.90125 1.382-0.7889 1.4882-1.6914-0.2125-1.015-1.2759-0.78851-1.9121-1.3535-0.9575-1.0138-2.6551-1.5788-3.0801-3.1562-1.5938-1.1275-1.9141-2.9319-3.4004-4.1719-0.74375-0.67625-2.0172-0.56523-2.8672-0.67773-2.3375 0.56375-4.5684 2.5946-5.6309 4.8496-0.53125 0.67625-0.21289 1.8038-1.2754 2.1425-1.275-0.11375-2.5489 0.22493-3.6114 1.0137-1.3812 1.1288-2.018 2.7064-2.7618 4.2851-3.1862 0.45-4.036 4.0598-5.5234 6.541-0.3175 0.11125-0.42461-0.45226-0.31836-0.79101-0.74375-1.24 0.21086-2.3661-0.21289-3.6074 0.42375-1.3525 0.21298-3.1572 1.168-4.3985 0.85-2.5938 2.5492-4.848 2.2305-7.7792-0.74375-1.24-0.31758-3.1585-0.95508-4.3985 0.10625-2.7062 2.2305-4.961 3.7168-7.1035h0.42578c0.53125 0.225 0.74336 0.78978 0.84961 1.3535 1.1688 1.465 3.1872 1.804 4.9922 1.2402 1.9125-0.79 3.6138-1.6906 5.8438-1.5781 0.85-0.225 1.5922 0.67625 2.336 0 0.2125-0.9025-0.53008-1.6918-0.95508-2.4805-0.10625-1.1275-2.1258-1.9162-0.95704-3.1562 0.6375-1.9175 1.8066-3.3845 2.3379-5.3008 0.2125-1.015 0.53086-2.2558 0.31836-3.1582-0.74375-1.1275-2.2312-0.33868-3.1875-0.45118-2.5488 0.33875-4.7794 0.79094-7.3281 1.2422-1.3812-1.1288-2.1261-2.933-3.2949-4.0605-0.2125-0.1125-0.52976-0.225-0.63476 0-0.31875 3.4962-3.6125 5.5258-3.7188 8.9082 0.31875 1.4662 0.95548 2.8186 2.2305 3.6074 0.53 0.33875 1.3798 0.45219 1.2735 1.2422-1.1688 1.8038-2.2298 3.608-3.9298 5.0742h-0.2129c-0.2125-2.7062-1.3801-5.3015-0.95508-8.0078 0.425-2.4812-2.1246-3.4945-1.9121-5.8632-1.1688-1.3525 0.63828-2.7036-0.10548-4.1699-0.31875-1.3538 0.42382-2.594 0.42382-3.834 0.84875-1.805 0.53086-3.8352 0.84961-5.8652-0.31875-0.45125-0.63711-0.90109-0.84961-1.4649-0.74375-2.3675 0.84961-4.3975 2.4434-5.75 1.275-0.67625 2.3376-1.9186 3.6114-2.4824 0.31875-0.225 0.74258-0.11138 0.95508 0.33985 0.31875 3.6075 3.9316 5.2988 4.4629 8.9062 0.425 1.015-0.10625 2.144 0 3.2715 1.275 0.45125 1.593-1.6921 2.7618-2.2559 0.74375-0.3375 1.381-1.0156 2.336-1.0156 1.7 1.1275 3.8246 1.5788 5.6309 2.5938 0.95625 0.33875 1.5941 1.5798 2.8691 1.3535 0.425-0.225 0.53008-0.90226 0.42382-1.3535 0-3.045-0.42539-6.4261 0.31836-9.3574 0.95625-1.24 2.3375-1.9176 3.7188-2.1426 0.31875-0.22625 0.31758-0.5636 0.42382-0.90235 0.31875-0.3375-0.10512-0.67656-0.42382-0.78906-0.74375-1.2412-2.1262-1.8054-3.1875-2.9316 0.2125-0.79-0.84882-0.79055-0.95508-1.4668-0.10625-1.1275-1.2758-1.9161-1.4882-3.0449-0.7425-0.90125-1.0609-2.2542-2.336-2.5918-1.275-0.45125-2.7629-0.6779-3.9316 0.2246-2.1238 0.56375-1.9101 2.9322-2.9726 4.3985-0.31875 0.225-0.63829-0.000775-0.95704-0.11325-1.9125-0.56375-4.2485-0.114-5.5235 1.916-0.74375 1.1275-0.63828 2.4815-1.4882 3.3828-1.9112 1.015-3.718 2.1431-5.418 3.6094-0.31875 0.33875-0.53008-0.11362-0.42382-0.33984 0.9575-1.1275 1.0617-2.5915 1.168-3.9452-0.21125-2.9312 2.5496-5.5258 0.84961-8.457 0.6375-2.255 0.53281-4.7368 0.32031-7.2168-0.10625-0.33875-0.10738-1.1289-0.63868-1.1289-1.9125-1.8038 0.53086-3.606 0.84961-5.5235 0.10625-0.78875 0.74492-0.22649 1.1699-0.67774 0.31875-1.8038 1.2741-3.3814 2.3379-4.8476 0.31875-0.225 0.52969-0.0012 0.74219 0.11138 0.95625 1.5788 2.4435 2.594 3.9298 3.2715 2.7625 0.5625 4.1446 3.3825 5.0996 5.75 1.2762-0.225 0.74336-1.9164 1.3809-2.7051 0.21125-1.6912 0.42382-3.8335 2.0176-4.5098 2.0175 0.225 3.5066-1.016 5.5254-0.79101 1.0625-0.56375 2.4435 0.115 3.3985-0.5625 0.31875-0.78875-0.42382-1.5789-0.95508-2.1426-0.95625-1.5788-2.0191-3.1571-2.8691-4.8496-0.2125-0.78875 0.000775-1.3522-0.63672-1.916 1.3812-1.3525 2.1235-3.1576 3.3985-4.7364 0.10625-0.45 0.31875-1.2394 0-1.6895-1.595-0.228-3.188-0.453-4.994-0.679-2.017-0.227-3.294-2.256-4.887-3.3831-1.17-0.9025-2.654-0.7903-3.929-0.2266-0.425 0.56375-0.95625 1.0147-1.0625 1.8047-1.0612 1.24-0.9575 3.0435-1.0625 4.5098-0.21375 0.78875 0.7425 1.5804 0 2.3691-2.125 0.22625-4.25 1.3536-5.3125 3.4961-0.53125 1.69 0.21375 3.4942 0 5.1855-0.955 1.015-1.3798 2.9321-2.8672 2.8184-0.31875-0.67625-0.74298-1.3522-0.63672-2.3672-1.1688-2.5938-2.9734-4.8492-4.4609-7.2168-0.31875-0.78875-1.1703-1.126-1.3828-1.916 0.95625-0.45 1.7008-1.2417 2.5508-1.918 0.7425-0.56375 0.2114-1.6898 0.84765-2.4785 0.31875-1.3538 0.10664-2.708-0.31836-4.0605-1.9112-2.8188-5.3099-3.2695-7.4336-5.8632-0.74375-0.78875-0.85118-2.4798-2.2324-2.3672z"/><path d="m20.182 3.7539c-1.414 0.75-0.908 2.6808-2.12 3.6445-2.222 0.1075-4.847-0.1075-7.271 0-0.201 0.4287 0.403 0.8564 0.605 1.2852 0 0.8575 0.506 1.6084 0.708 2.3594 0.606 0.964 0.405 2.144 1.111 3.002 0.909 1.929-1.617 3.107-2.223 4.715l-0.099 0.429c0.908 0.535 1.917 0.75 2.826 1.071 2.726 0.429 4.544 4.61 7.674 2.896 1.818-1.072 1.717-3.216 2.322-4.931-0.303-0.644-0.201-1.394 0.506-1.715 1.616 0 2.929-0.858 3.838-2.252 0.101-1.393 0.807-2.786 0.101-4.18-2.02-2.3586-5.05-3.1092-7.07-5.4667-0.201-0.4287-0.505-0.7511-0.908-0.8574zm25.322 6.8891c-0.729-0.041-1.486 0.22-2.016 0.783-0.908 2.144-2.02 5.146-0.203 7.183-0.1 0.322-0.402 0.536-0.705 0.536-1.717-0.535-3.334 0.428-4.445 1.607-1.211 1.607-0.705 3.645-0.301 5.574 0.505 1.073 1.111 2.465 2.424 3 2.019 0.859 4.643 1.502 5.451 4.182h0.305c0.908-1.394 0.504-3.431 1.816-4.717 1.819-0.536 3.837-0.644 5.756-1.072 0.807-0.321 2.12 0.428 2.424-0.643-1.716-2.359-2.727-5.039-3.838-7.611 1.111-1.5 2.726-2.678 3.433-4.5 0-0.215-0.201-0.43-0.404-0.537-1.615 0-3.332-0.322-4.847-0.75-1.515-0.644-2.624-2.25-4.139-2.893-0.227-0.08-0.468-0.129-0.711-0.142zm-29.99 23.05c-1.103 0.081-2.05 0.705-2.883 1.508-1.919 1.609-4.4444 1.821-6.2619 3.108l1.2129 2.574c0.505 0.321 0.7067 0.856 0.8067 1.392-1.0088 1.715-3.1294 2.574-3.7344 4.61-0.6062 0.965-2.1219 1.823-1.5156 3.109 2.7262 0.858 5.957 0.643 8.5823 0 1.01 0.75 0.1 2.251 0.707 3.215 0.201 0.644 0.103 1.821 1.011 1.5 1.11-1.286 2.423-1.608 3.836-1.93 1.514-0.535 2.725-1.393 4.139-2.144 1.213-0.858 2.326-2.143 2.123-3.75 0.505-3.216-3.031-3.751-4.445-5.895-0.403-0.965 0.81-1.287 0.406-2.252-0.202-1.286-0.606-2.358-1.111-3.537-0.505-0.535-1.011-1.179-1.717-1.392-0.404-0.108-0.789-0.142-1.156-0.116zm33.125 14.53c-1.313 0.215-2.626 1.5-3.131 2.892-0.101 0.751 0.103 1.609-0.604 2.037-1.313 0.643-2.425-1.285-3.939-0.427-1.414 0.535-2.523 2.144-3.029 3.644-0.202 0.536 0.2 1.07-0.102 1.608 0.201 2.678 2.928 4.285 3.736 6.644 0.404 0.858 0.606 1.717 0.909 2.682 1.413-0.215 2.324-2.037 3.839-1.395 1.817 0.858 3.533 1.929 5.553 2.465 0.504 0.214 1.11 0.965 1.615 0.75 0.303-3-0.506-6.538 0.504-9.324 0.505-1.501 2.019-1.395 2.928-2.36v-0.32c-2.524-1.5-3.736-4.288-4.846-6.646-0.505-1.608-2.02-2.25-3.433-2.25zm-30.485 13.324c-0.103-0.008-0.217 0.005-0.343 0.045-1.313 0.857-1.008 2.468-1.918 3.431-0.605 1.608-2.324 0.214-3.536 0.428-1.211 0.214-2.22-0.856-3.3316-0.32-0.1 0.429 0.0006 0.749 0.2031 1.07 0.505 1.073 0.8075 2.466 1.2105 3.645-0.101 1.822-1.2119 3.215-2.1206 4.716-0.3038 0.535-0.4043 1.072-0.6055 1.608 0 0.321 0.1015 0.322 0.3027 0.43 2.6264 0 4.5444 1.714 6.9664 2.464 1.414 0.858 3.333 1.93 4.848 0.858 2.02-1.286 1.211-4.181 0.908-6.324 0.505-0.75 1.415-0.857 2.223-1.071 1.312-0.751 3.129-1.717 3.23-3.539 0.203-1.286-1.311-2.251-2.119-2.787-1.312-1.179-2.828-2.036-4.242-3.107-0.706-0.376-0.949-1.49-1.676-1.547zm18.905 17.908c-0.058 0.007-0.117 0.028-0.18 0.068-0.504 2.465-3.332 3.538-3.131 6.325 0.708 0.857 1.111 2.143 2.221 2.572 1.818 0.644 1.213 2.894 1.414 4.502 2.929 3.43 6.16-1.179 9.695-0.535 0.303 0.107 0.707-0.001 0.606-0.323-0.404-0.75-0.708-1.5-1.414-2.037-0.505-0.535-0.303-1.285-0.102-1.82 1.213-1.286 1.414-3.11 2.424-4.504 0-0.75 1.01-1.928 0.101-2.68-2.322 0.215-4.847 0.215-7.068 0.965-0.706 0-1.212 0.859-1.92 0.537l-1.514-2.359c-0.441-0.094-0.729-0.761-1.132-0.711zm-20.276 10.83c-0.617-0.042-1.256 0.133-1.855 0.602-2.625 1.178-5.2508 2.25-8.2796 2.25 0.3025 1.18 1.4136 2.144 2.1211 3.217 0.3025 0.428 0.9066 0.429 1.0078 0.964 0.5047 1.288-0.9086 1.608-1.5136 2.25-2.02 1.072-2.5247 3.432-4.4434 4.722-0.1012 0.42-1.0106 1.07-0.2031 1.5 1.4137 0.43 3.0299 0.75 4.5449 0.64 1.5137 0.11 3.6369-0.86 4.8479 0.32l1.213 4.29c2.221-0.86 4.946-0.86 6.763-2.57 1.717-1.18 2.525-3.22 2.93-5.26-0.202-3-3.434-2.89-5.252-4.177v-0.428c0.809-0.751 0.706-1.93 1.313-2.787-0.202-0.965 0.303-1.929-0.102-2.894-0.485-1.4-1.735-2.546-3.092-2.639zm32.248 13.725c-1.074 0.04-1.964 0.59-2.797 1.31-1.212 1.39-2.929 2.79-2.425 4.93-1.009 1.61-2.827-0.64-4.139 0.64-1.314 1.08-2.827 2.58-2.221 4.61 0.1 0.43 0.403 0.65 0.403 1.07l3.736 4.08c0.707 0.96 0.808 2.25 1.414 3.21 1.819-0.43 2.828-3.53 5.049-2.36 1.819 1.4 3.939 2.36 6.16 3.01 0.302-0.22-0.001-0.43 0.201-0.75-0.707-2.58 0.1-5.47-1.01-7.94-0.101-0.53-0.704-0.96-0.402-1.39 1.615-0.54 3.432-0.64 4.543-2.25 0.202-0.32-0.001-0.75-0.305-0.97-1.615-0.53-3.128-2.03-4.238-3.64-0.909-1.18-1.818-2.36-2.828-3.43-0.404-0.11-0.783-0.15-1.141-0.13z" transform="translate(0 -.0010986)" fill="#fff"/></g></svg>
